<svg width="50" height="50" viewBox="0 0 50 50" fill="none" xmlns="http://www.w3.org/2000/svg">
<path d="M19.4093 0.681966C20.1406 0.519593 21.4065 0.303096 22.2222 0.205672C23.038 0.0974237 24.2194 0.0108249 24.8664 0C25.4993 0 26.7932 0.0865988 27.7496 0.205672C28.692 0.313921 30.0422 0.541243 30.7314 0.692791C31.4205 0.844339 32.5035 1.14743 33.1224 1.35311C33.7412 1.55878 34.6835 1.916 35.2321 2.15415C35.7806 2.40312 36.6526 2.84694 37.2011 3.15003C37.7496 3.46395 38.7342 4.12427 39.3952 4.64386C40.0563 5.15263 40.9986 5.97532 41.4768 6.48409C41.9691 6.99286 42.6301 7.79389 42.9677 8.27019C43.3052 8.74648 43.7834 9.52587 44.0225 10.0022C44.2757 10.4785 44.6273 11.312 44.8101 11.8424C44.993 12.3728 45.218 13.3037 45.4712 14.9816L46.1041 15.4146C46.4557 15.6527 46.8636 16.0424 47.0323 16.2806C47.3136 16.6919 47.3277 16.8651 47.3277 20.0152C47.3277 23.0245 47.2996 23.3492 47.0605 23.6956C46.9198 23.9013 46.6385 24.2152 46.4276 24.3776C46.2307 24.5508 45.8087 24.7889 45.4993 24.9188C45.0774 25.092 44.6835 25.1461 43.9522 25.157C43.2771 25.157 42.827 25.092 42.0534 24.7781L41.2518 25.1786C40.8017 25.3951 39.8875 25.7632 39.1983 25.9905C38.5232 26.2178 37.384 26.5209 36.6807 26.6616C35.9634 26.8023 34.7961 26.9864 34.1069 27.0621C33.0661 27.1704 32.7707 27.2462 32.4191 27.4843C32.1941 27.6467 31.8565 27.8415 31.6878 27.9065C31.4909 27.9714 30.6188 28.0255 29.5781 28.0255C28.045 28.0147 27.7075 27.9822 27.2855 27.7982C27.0183 27.69 26.6807 27.441 26.5541 27.2678C26.4135 27.0838 26.301 26.7374 26.301 26.4884C26.301 26.2178 26.4135 25.8822 26.5823 25.6766C26.737 25.4817 27.0323 25.2327 27.2433 25.1353C27.5246 24.9838 28.0028 24.9296 29.1139 24.908C29.9297 24.8863 30.8579 24.8972 31.1955 24.9296C31.5612 24.9729 31.955 25.1137 32.2504 25.3085C32.6864 25.6224 32.7145 25.6224 33.6568 25.525C34.1772 25.4709 34.8945 25.3735 35.2602 25.3193C35.6399 25.2544 36.4416 25.0812 37.0605 24.9188C37.6793 24.7673 38.5935 24.475 39.0999 24.2801C39.6062 24.0853 40.1266 23.8688 40.2672 23.7822C40.5204 23.6523 40.5345 23.425 40.4923 16.8218L40.8579 16.2589C41.083 15.8909 41.4065 15.577 41.7722 15.3929C42.0956 15.2089 42.3207 15.0032 42.3347 14.8733C42.3347 14.7543 42.2363 14.1914 42.1097 13.6285C41.9831 13.0656 41.7018 12.178 41.4768 11.6475C41.2518 11.1279 40.7876 10.2836 40.4501 9.76402C40.1125 9.2336 39.5218 8.46504 39.1421 8.05369C38.7482 7.64235 37.9325 6.89543 37.2996 6.40831C36.6667 5.91037 35.6821 5.26088 35.1336 4.95778C34.571 4.65469 33.5584 4.18922 32.8692 3.92942C32.1941 3.66963 31.097 3.31241 30.4219 3.12838C29.7328 2.95519 28.5795 2.73869 27.8481 2.65209C27.1167 2.55467 25.8509 2.47889 25.0352 2.47889C24.2194 2.47889 22.9677 2.55467 22.2504 2.64126C21.5471 2.72786 20.436 2.93354 19.8031 3.08508C19.1561 3.24746 18.1294 3.56138 17.5105 3.79952C16.8917 4.03767 15.879 4.49231 15.2602 4.80624C14.6414 5.12016 13.6006 5.78047 12.9395 6.27842C12.2785 6.77636 11.3924 7.55575 10.9845 7.99957C10.5767 8.44339 9.95781 9.2336 9.62025 9.76402C9.2827 10.2836 8.81857 11.1279 8.57947 11.6475C8.35443 12.178 8.07314 13.0656 7.96062 13.6285C7.83404 14.1914 7.73558 14.7543 7.73558 14.8733C7.74965 15.0032 7.96062 15.2089 8.27004 15.3605C8.57947 15.5337 8.94515 15.8692 9.56399 16.8218V23.2085L9.18425 23.793C8.94515 24.1502 8.5654 24.4966 8.22785 24.6807C7.91843 24.8539 7.35584 25.0487 6.96203 25.1137C6.58228 25.1786 5.99156 25.2111 5.66807 25.1678C5.33052 25.1353 4.82419 25.0054 4.52883 24.8972C4.24754 24.7781 3.83966 24.5508 3.64276 24.3776C3.43179 24.2152 3.15049 23.9013 3.00985 23.6956C2.77075 23.3492 2.74262 23.0245 2.74262 20.0152C2.74262 16.8002 2.75668 16.7028 3.0661 16.2481C3.23488 15.9991 3.65682 15.6094 3.99437 15.3929C4.59916 14.9924 4.62729 14.9599 4.71167 14.2239C4.75387 13.8125 4.89452 13.0981 5.0211 12.6543C5.13362 12.2104 5.38678 11.4527 5.58369 10.9764C5.76653 10.5001 6.30098 9.52587 6.75105 8.81143C7.21519 8.08617 8.03094 7.05781 8.57947 6.48409C9.14205 5.9212 9.94374 5.17428 10.3797 4.82788C10.8158 4.47066 11.6878 3.88612 12.3066 3.50725C12.9255 3.12838 13.91 2.59797 14.4866 2.32734C15.0633 2.05672 16.1181 1.63455 16.8073 1.39641C17.4965 1.16908 18.6779 0.844339 19.4093 0.681966Z" fill="white"/>
<path d="M22.2222 5.29335C22.7989 5.2284 23.3755 5.15263 23.488 5.13098C23.6006 5.10933 24.6132 5.10933 25.7384 5.13098C26.9058 5.15263 28.1575 5.25005 28.6639 5.34748C29.1421 5.43408 30.0281 5.65057 30.6188 5.8346C31.2236 6.00779 32.1941 6.38666 32.7707 6.67894C33.3474 6.97121 34.2475 7.54492 34.7539 7.95627C35.2602 8.36761 35.865 8.91968 36.1041 9.1903C36.3432 9.46092 36.7229 9.96969 36.948 10.3269C37.1871 10.6841 37.5387 11.3769 37.7496 11.8749C37.9466 12.362 38.2138 13.2171 38.3263 13.7692C38.4388 14.3105 38.5373 15.3713 38.5373 16.1182C38.5373 16.8651 38.4529 17.8827 38.3404 18.3914C38.2419 18.9002 37.9888 19.777 37.7778 20.3399C37.5809 20.9028 37.2152 21.758 36.9761 22.2342C36.737 22.7105 36.4557 23.2301 36.3432 23.4033C36.1744 23.6415 35.9916 23.7173 35.2039 23.858C34.6695 23.9446 34.0506 24.042 33.8256 24.0745C33.5162 24.1178 33.2208 24.0528 32.7004 23.8363C32.0113 23.5332 31.9691 23.5332 27.2152 23.5332L26.4416 23.858C26.0056 24.042 25.4852 24.3884 25.2039 24.6698C24.9508 24.9405 24.6414 25.4276 24.5148 25.7523C24.3741 26.1528 24.3319 26.5101 24.4023 26.8348C24.4585 27.1054 24.5992 27.4843 24.6976 27.6792C24.8101 27.8632 25.1336 28.2312 25.429 28.4694C25.7103 28.7183 26.2025 29.0214 26.512 29.1513C27.0042 29.3462 27.3418 29.3787 31.6456 29.4328V30.1905C31.6456 30.6343 31.73 31.0782 31.8425 31.2514C31.955 31.4137 32.2222 31.6735 32.4473 31.8359C32.6582 31.9983 33.2208 32.3014 33.685 32.5179C34.1491 32.7235 35.5696 33.2215 36.8495 33.6003C38.1294 33.9792 40.1266 34.6612 41.2799 35.105C42.4473 35.538 44.0788 36.2633 44.9367 36.6963C45.7947 37.1401 46.9198 37.8437 47.4684 38.255C48.0169 38.6772 48.692 39.3375 48.9873 39.7272C49.2827 40.1061 49.6203 40.6906 49.7609 41.0154C49.9297 41.4484 50 42.0113 50 43.0721C50 44.4793 49.9859 44.5551 49.564 45.2371C49.3108 45.6484 48.8467 46.168 48.4248 46.4819C48.0309 46.785 47.3136 47.2072 46.8214 47.4345C46.3291 47.651 45.429 47.9866 44.8383 48.1598C44.2335 48.3438 43.1224 48.6036 42.3769 48.7551C41.6174 48.9067 40.2391 49.134 39.3108 49.2423C38.3826 49.3613 37.0464 49.5021 36.3572 49.567C35.6681 49.6211 33.5162 49.751 31.5752 49.8376C29.6484 49.9242 26.5963 50 24.8242 50C23.038 50 20.0985 49.9242 18.2841 49.8376C16.4698 49.751 14.1913 49.5995 13.2208 49.5021C12.2504 49.4155 10.8298 49.2423 10.0563 49.1232C9.2827 49.0041 8.14346 48.7876 7.52461 48.6577C6.90577 48.517 5.92124 48.2572 5.34459 48.084C4.76793 47.9 3.88186 47.5644 3.37553 47.3154C2.8692 47.0773 2.13783 46.6226 1.74402 46.2979C1.35021 45.984 0.886076 45.5077 0.703235 45.2371C0.520394 44.9664 0.295359 44.5118 0.196906 44.2087C0.0843882 43.9164 0 43.3535 0 42.9638C0 42.5742 0.0984529 41.9247 0.225035 41.5025C0.337553 41.0803 0.632911 40.4525 0.872011 40.0953C1.15331 39.7056 1.80028 39.0777 2.53165 38.5148C3.19269 38.0061 4.28973 37.2916 4.99297 36.9344C5.6962 36.5772 7.11674 35.906 8.15753 35.4406C9.19831 34.9751 10.7454 34.3364 11.6034 34.0009C12.4613 33.6761 13.8397 33.1998 14.6976 32.9292C15.5556 32.6694 16.4979 32.3447 16.8073 32.2039C17.1167 32.0632 17.5949 31.7601 17.8762 31.5328C18.2138 31.2405 18.4248 30.9266 18.5373 30.5477C18.6639 30.1472 18.6639 29.8333 18.5654 29.4869C18.481 29.2163 18.3404 28.8699 18.2278 28.7075C18.1294 28.5343 17.5387 27.8956 16.9198 27.2678C16.3151 26.64 15.4712 25.6874 15.0492 25.157C14.6273 24.6265 14.0225 23.7389 13.699 23.2085C13.3755 22.6781 12.9536 21.8446 12.7426 21.3683C12.5457 20.892 12.2363 20.0368 12.0816 19.4739C11.8847 18.7703 11.7722 17.8718 11.7159 16.6053C11.6596 15.2197 11.7018 14.5053 11.8706 13.7367C11.9831 13.1738 12.2504 12.3187 12.4613 11.8424C12.6723 11.3661 12.9958 10.7383 13.1927 10.4352C13.3755 10.1429 13.7834 9.62329 14.0647 9.29855C14.3601 8.9738 14.8664 8.46504 15.2039 8.17276C15.5415 7.88049 16.1744 7.43667 16.5963 7.1877C17.0183 6.92791 17.7778 6.54904 18.2841 6.34336C18.7904 6.12687 19.6484 5.8346 20.1828 5.69387C20.7173 5.55315 21.6456 5.36913 22.2222 5.29335Z" fill="white"/>
</svg>
