<svg width="59" height="50" viewBox="0 0 59 50" fill="none" xmlns="http://www.w3.org/2000/svg">
<path fill-rule="evenodd" clip-rule="evenodd" d="M23.6369 0C23.7475 0 24.0056 0.147059 24.5833 0.630252L24.571 6.67017L26.55 7.82563L28.529 6.67017L28.5167 0.630252L28.8731 0.315126C29.0698 0.147059 29.3402 0 29.4631 0C29.586 0 30.1269 0.210084 30.6677 0.451681C31.3929 0.777311 31.946 1.14496 32.7573 1.83824C33.544 2.5105 33.9988 2.9937 34.3183 3.51891C34.5642 3.92857 34.896 4.61134 35.0558 5.04202C35.2894 5.70378 35.3385 6.03992 35.3262 7.19538C35.314 8.37185 35.2771 8.67647 34.9944 9.40126C34.81 9.86345 34.4658 10.5462 34.2077 10.9244C33.9496 11.292 33.3473 11.9538 32.8679 12.395C32.3885 12.8256 31.8846 13.3508 31.7617 13.5504C31.5896 13.834 31.5281 14.2017 31.4667 16.3866H37.1823L38.1656 15.5462H37.084C36.1006 15.5462 35.99 15.5252 35.7073 15.2836C35.4 15.021 35.4 15.0105 35.4 13.0252C35.4 11.0504 35.4 11.0294 35.7073 10.7668C35.9777 10.5252 36.0883 10.5042 38.1656 10.5042L37.4035 9.85294C36.7521 9.29622 36.6292 9.13866 36.6292 8.82353C36.6292 8.4874 36.789 8.31933 38.264 7.05882C39.7267 5.80882 39.9356 5.67227 40.3167 5.67227C40.6731 5.67227 40.8698 5.77731 42.2833 6.98529V6.07143C42.2833 5.23109 42.3079 5.12605 42.5906 4.88445C42.8856 4.62185 42.8979 4.62185 45.2333 4.62185C47.5565 4.62185 47.5688 4.62185 47.876 4.88445C48.1588 5.12605 48.1833 5.22059 48.1833 6.98529L48.9454 6.33403C49.5969 5.77731 49.7812 5.67227 50.15 5.67227C50.5433 5.67227 50.74 5.80882 52.2027 7.06933C53.6777 8.31933 53.8375 8.4874 53.8375 8.82353C53.8375 9.13866 53.7146 9.29622 52.301 10.5042H53.3704C54.366 10.5042 54.4767 10.5252 54.7594 10.7668C55.0667 11.0294 55.0667 11.0399 55.0667 13.0252C55.0667 15 55.0667 15.021 54.7594 15.2836C54.489 15.5252 54.3783 15.5462 52.301 15.5462L52.7927 15.9664C53.2106 16.334 53.3581 16.3866 53.8006 16.3866C54.0956 16.3866 54.4398 16.4286 54.575 16.4916C54.7348 16.5546 55.5952 17.9307 56.9104 20.1681C58.0658 22.1324 59 23.855 59 24.0021C59 24.1492 58.8648 24.3803 58.6927 24.5273C58.41 24.7794 58.3485 24.7899 55.0667 24.7899L55.1281 33.9601L55.7673 34.0966C56.1238 34.1807 56.6277 34.3592 56.8735 34.4853C57.1317 34.6218 57.5004 34.895 57.6971 35.0945C57.8937 35.2941 58.1888 35.6933 58.3363 35.9769C58.5575 36.3655 58.6313 36.6912 58.6313 37.2374C58.6313 37.6681 58.5452 38.1933 58.4223 38.4979C58.2871 38.834 57.9798 39.2227 57.5865 39.5693C57.144 39.958 56.3204 40.4307 54.6365 41.2605C53.3458 41.8908 49.6215 43.729 46.3396 45.3466C43.0577 46.9643 40.0831 48.4139 39.7267 48.5714C39.3825 48.7185 38.7433 48.9181 38.3131 49.0021C37.6863 49.1282 36.1744 49.1597 29.4385 49.1597C21.8792 49.1597 21.2646 49.1492 20.4042 48.9601C19.9002 48.855 19.0767 48.5924 17.7 48.0042V48.7395C17.7 49.3803 17.6631 49.5063 17.0977 50H8.48125L8.17396 49.7374C7.91583 49.5168 7.86667 49.3697 7.86667 48.3193H0.614583L0 47.7941V35.3992L0.602292 34.874H7.86667V34.2962C7.86667 33.8235 7.91583 33.666 8.46896 33.1933H17.0854L17.3927 33.4559C17.6754 33.6975 17.7 33.8025 17.7 35.5042L19.679 35.0315L19.6667 24.7899H18.0073C16.3971 24.7899 16.3356 24.7794 16.0406 24.5273C15.8685 24.3803 15.7333 24.1492 15.7333 24.0021C15.7333 23.855 16.6675 22.1324 17.8229 20.1681C19.1381 17.9307 19.9985 16.5546 20.1583 16.4916C20.2935 16.4286 20.6746 16.3866 21.6333 16.3866L21.5965 15.1576C21.5719 14.2332 21.5104 13.834 21.3506 13.5819C21.24 13.3929 20.736 12.8676 20.2444 12.416C19.765 11.9643 19.1504 11.292 18.8923 10.9139C18.6342 10.5462 18.29 9.86345 18.1056 9.40126C17.8352 8.67647 17.786 8.37185 17.7738 7.19538C17.7615 6.03992 17.8106 5.70378 18.0442 5.04202C18.204 4.61134 18.5358 3.92857 18.7817 3.51891C19.1013 3.0042 19.556 2.5 20.3427 1.83824C21.1663 1.12395 21.6948 0.777311 22.4323 0.441176C22.9731 0.19958 23.514 0 23.6246 0L23.6369 0ZM21.7685 2.94118C21.2892 3.35084 20.7852 3.91807 20.5148 4.35924C20.269 4.76891 19.974 5.39916 19.8756 5.77731C19.765 6.15546 19.679 6.72269 19.679 7.03782C19.679 7.35294 19.7404 7.89916 19.8142 8.2458C19.8879 8.59244 20.1583 9.2542 20.4042 9.71639C20.736 10.2941 21.1048 10.7458 21.6088 11.187C22.0144 11.5336 22.5183 12.0273 22.7396 12.2899C22.9485 12.5525 23.2435 13.0672 23.3787 13.4454C23.5508 13.9496 23.6123 14.4328 23.6123 15.2626V16.3866H25.579C25.579 13.6029 25.5913 13.5399 25.8863 13.2878C26.0706 13.1197 26.3165 13.0252 26.5623 13.0252C26.7958 13.0252 27.0417 13.1197 27.2383 13.2878C27.5333 13.5399 27.5456 13.5924 27.5456 14.9685V16.3866H29.5123C29.586 13.9916 29.6475 13.5819 29.8565 13.1303C30.0285 12.7311 30.4219 12.2584 31.1102 11.6071C31.6633 11.0924 32.2656 10.4517 32.4377 10.1891C32.6221 9.92647 32.8925 9.42227 33.04 9.06513C33.1998 8.69748 33.3596 8.05672 33.3965 7.64706C33.4456 7.20588 33.421 6.57563 33.335 6.14496C33.249 5.72479 32.9785 5.03151 32.6958 4.54832C32.3394 3.89706 32.0075 3.4979 31.3806 2.97269L30.5571 2.26891C30.4588 6.40756 30.4096 7.62605 30.3973 7.64706C30.385 7.65756 29.586 8.11975 28.615 8.66597C27.5702 9.26471 26.7467 9.66387 26.5623 9.66387C26.3779 9.66387 25.5544 9.26471 24.4973 8.66597C23.5385 8.11975 22.7396 7.65756 22.7273 7.64706C22.715 7.62605 22.6658 6.40756 22.629 4.93698L22.5675 2.2584L21.7685 2.94118ZM44.2623 7.35294C44.2623 7.98319 44.2008 8.5084 44.1148 8.66597C44.0165 8.83403 43.7215 9.0126 43.3404 9.14916C43.0085 9.26471 42.6152 9.33823 42.48 9.30672C42.3448 9.27521 41.8162 8.89706 41.3123 8.45588L40.3904 7.66807L38.9769 8.87605C40.4888 10.1786 40.9313 10.6408 40.9435 10.7458C40.9435 10.8403 40.8329 11.145 40.6977 11.4286C40.5502 11.7227 40.329 11.9748 40.1446 12.0588C39.9602 12.1324 39.3456 12.1849 38.6081 12.1849H37.379V13.8655C39.5423 13.8761 40.0954 13.9181 40.2306 14.0021C40.3412 14.0756 40.5502 14.3382 40.6854 14.6008C40.8206 14.8634 40.9435 15.1576 40.9435 15.2626C40.9435 15.3571 40.71 15.6513 40.4273 15.9139L39.8988 16.3971L44.3238 16.376C43.279 15.9349 42.7504 15.6197 42.48 15.3887C42.2096 15.1576 41.8531 14.7374 41.681 14.4433C41.4352 14.0126 41.386 13.7605 41.386 13.0252C41.386 12.2899 41.4352 12.0378 41.681 11.6071C41.8531 11.3235 42.2096 10.8929 42.48 10.6618C42.7504 10.4307 43.2544 10.1155 43.5863 9.97899C44.0902 9.76891 44.3852 9.71639 45.2456 9.71639C46.106 9.71639 46.401 9.76891 46.905 9.97899C47.2492 10.1155 47.7408 10.4307 48.0113 10.6618C48.2817 10.8929 48.6504 11.3235 48.8102 11.6071C49.056 12.0378 49.1175 12.2899 49.1175 13.0252C49.1175 13.8235 49.0683 13.9811 48.7242 14.5483C48.5029 14.895 48.1956 15.2836 48.0481 15.4097C47.8883 15.5357 47.409 15.8088 46.9665 16.0084L46.1675 16.3866L50.5925 16.3971C49.7812 15.6513 49.5477 15.3571 49.5477 15.2626C49.5477 15.1576 49.6706 14.8634 49.8058 14.6008C49.9533 14.3382 50.15 14.0756 50.2606 14.0021C50.3958 13.9181 50.949 13.8761 51.7971 13.8655H53.1123V12.1849C50.949 12.1744 50.3958 12.1324 50.2606 12.0483C50.15 11.9748 49.941 11.6912 49.7935 11.3971C49.646 11.1134 49.56 10.7773 49.5969 10.6618C49.6338 10.5462 50.0763 10.0945 50.5925 9.66387L51.5144 8.87605L50.1008 7.66807C48.5521 8.98109 48.0235 9.33824 47.8883 9.33824C47.7531 9.33824 47.3967 9.2437 47.0894 9.12815C46.7821 9.01261 46.4748 8.83403 46.3887 8.7395C46.2904 8.62395 46.2413 8.15126 46.229 7.43698V6.30252H44.2623V7.35294ZM43.6846 11.9643C43.5371 12.1429 43.365 12.4475 43.3281 12.6366C43.2913 12.8151 43.2913 13.1618 43.3404 13.3929C43.3978 13.673 43.5781 13.9391 43.8813 14.1912C44.1394 14.4118 44.5081 14.6113 44.754 14.6534C44.9875 14.6954 45.4054 14.6954 45.6758 14.6534C46.0036 14.6043 46.315 14.4503 46.61 14.1912C46.8804 13.9706 47.1017 13.6555 47.1508 13.4454C47.2 13.2458 47.2123 12.8992 47.1631 12.6891C47.1263 12.4685 46.9419 12.1429 46.7575 11.9538C46.5608 11.7752 46.229 11.5651 46.02 11.4811C45.7988 11.4076 45.43 11.3445 45.221 11.3445C44.9998 11.355 44.631 11.4181 44.3975 11.4916C44.164 11.5651 43.8444 11.7752 43.6846 11.9643ZM18.3269 23.1092H32.831L35.781 18.0672H21.2769L18.3269 23.1092ZM41.9269 23.1092H56.431L53.481 18.0672H38.9769L41.9269 23.1092ZM35.2525 22.7731C34.6379 23.8235 34.0848 24.6218 33.9373 24.6849C33.7775 24.7479 31.4421 24.7899 27.6685 24.7899H21.6456V34.6113C23.4033 34.2752 23.981 34.2332 24.8415 34.2647C25.8371 34.3067 26.759 34.4853 31.1717 35.4937C34.011 36.145 36.3465 36.6597 36.3587 36.6387C36.371 36.6176 36.371 33.0882 36.3587 28.7815L36.3342 20.9559L35.2525 22.7731ZM38.35 37.1429C40.6854 37.6891 41.5335 37.9202 41.7302 38.0042C41.9392 38.0987 42.3694 38.3718 42.689 38.624L43.2667 39.0756L53.0385 34.2857L53.1 24.8004C43.3158 24.7899 40.9681 24.7584 40.8083 24.6849C40.6731 24.6324 40.1323 23.8445 39.5177 22.7941C38.9523 21.8172 38.4483 21.0084 38.4115 21.0084C38.3869 21.0084 38.35 24.6429 38.35 29.0756V37.1429ZM9.84562 48.3298H15.7456V34.8845H9.84562V48.3298ZM48.9946 38.2248L43.955 40.7143C43.8444 41.6071 43.6969 42.0798 43.5617 42.3424C43.4265 42.605 43.1069 43.0252 42.8365 43.2773C42.566 43.5294 42.0744 43.855 41.7425 44.0021C41.3246 44.1807 40.8575 44.2857 40.2675 44.3172C39.4685 44.3592 39.026 44.2752 34.2446 43.1828C31.4052 42.542 28.615 41.8908 28.0373 41.7542C27.4596 41.6176 26.8942 41.4181 26.7713 41.3235C26.636 41.208 26.55 40.9874 26.55 40.7458C26.5623 40.4307 26.636 40.2941 26.8942 40.1366C27.0785 40.0105 27.3244 39.916 27.4227 39.9265C27.521 39.9265 30.2867 40.5357 33.5685 41.292C36.8504 42.0378 39.7513 42.6576 40.0217 42.6576C40.2921 42.6576 40.71 42.5735 40.9435 42.458C41.1771 42.3529 41.4967 42.0798 41.6565 41.8592C41.8654 41.5441 41.9269 41.3235 41.9023 40.9139C41.8777 40.5357 41.7671 40.2731 41.5212 40C41.3123 39.7479 40.9927 39.5588 40.6608 39.4538C40.3781 39.3697 36.8258 38.5504 32.7696 37.6155C26.7098 36.2395 25.2471 35.9349 24.5588 35.9349C23.9442 35.9349 22.9608 36.1029 20.7115 36.5966L17.7 37.2479L17.7123 46.124C19.7527 46.9958 20.6623 47.3109 21.031 47.374C21.5227 47.4685 23.8704 47.5 29.8196 47.4685C37.6125 47.437 37.9567 47.4265 38.4975 47.2269C38.8048 47.1113 42.8856 45.1261 47.5688 42.8151C53.6531 39.8109 56.1606 38.5189 56.345 38.2983C56.5171 38.0987 56.6277 37.7731 56.6523 37.4055C56.6892 36.9328 56.64 36.7647 56.4065 36.4706C56.2467 36.271 55.9517 36.0189 55.755 35.9244C55.546 35.8193 55.1896 35.7143 54.956 35.6933C54.7225 35.6618 54.4152 35.6618 54.28 35.6933C54.1448 35.7143 51.7602 36.8592 48.9946 38.2248ZM1.97896 46.6492H7.87896V36.5651H1.97896V46.6492Z" fill="white"/>
</svg>
