<svg width="59" height="50" viewBox="0 0 59 50" fill="none" xmlns="http://www.w3.org/2000/svg">
<path fill-rule="evenodd" clip-rule="evenodd" d="M39.5138 0.00233166C42.0403 -0.0104784 42.9747 0.0279518 43.2516 0.156052C43.4593 0.245723 43.7246 0.463494 43.84 0.642835C44.013 0.899036 44.0361 1.24491 44.0361 2.96146C44.0361 4.49866 43.99 5.07512 43.8631 5.36975C43.7592 5.61314 43.5516 5.80529 43.3093 5.88215C43.1132 5.95901 42.6979 6.01025 41.8442 6.01025V7.0991C41.8442 8.13672 41.8557 8.18796 42.098 8.18796C42.2479 8.18796 42.8594 8.30325 43.4593 8.44416C44.0592 8.58507 45.0975 8.91813 45.7666 9.16152C46.4357 9.41773 47.3933 9.85327 47.9009 10.1479C48.4085 10.4297 49.1584 10.8909 49.5737 11.1727C49.989 11.4673 50.5543 11.8901 51.3618 12.5562L51.881 11.9797C52.4001 11.4161 52.4001 11.4033 52.1925 11.083C52.0886 10.9037 51.9964 10.5322 51.9964 10.2632C52.0079 9.84046 52.1117 9.67393 52.9539 8.72598C53.473 8.14953 54.0268 7.62432 54.1883 7.56027C54.3498 7.50903 54.6382 7.50903 54.8228 7.56027C55.0536 7.63713 55.8034 8.38011 57.0378 9.75079C58.3299 11.1983 58.9298 11.9541 58.976 12.2231C59.0221 12.4281 58.9991 12.7483 58.9298 12.9277C58.8606 13.107 58.3992 13.6835 57.9146 14.2343C57.3839 14.798 56.8763 15.2463 56.6687 15.3104C56.4149 15.3744 56.2072 15.336 55.4689 14.9132L54.9728 15.4513C54.6498 15.7971 54.5113 16.0533 54.569 16.1558C54.6152 16.2455 54.9382 16.7835 55.2958 17.3472C55.6535 17.9108 56.2188 18.9997 56.5533 19.7811C56.8994 20.5625 57.3263 21.677 57.5108 22.279C57.6954 22.8811 57.9608 23.97 58.0992 24.7129C58.2377 25.4559 58.3992 26.7241 58.4568 27.5312C58.503 28.351 58.503 29.6576 58.4453 30.4775C58.3992 31.2845 58.3069 32.2709 58.2377 32.6552C58.18 33.0395 58.03 33.8209 57.8916 34.3845C57.7647 34.9482 57.4993 35.8449 57.3263 36.3701C57.1417 36.8953 56.7956 37.7664 56.5533 38.2916C56.3226 38.8168 55.9419 39.5982 55.7111 40.021C55.4804 40.4437 54.9843 41.2507 54.6036 41.8144C54.2114 42.378 53.4615 43.326 52.9193 43.9152C52.3771 44.5173 51.4657 45.3884 50.9004 45.8623C50.3351 46.3363 49.3891 47.0153 48.8238 47.3739C48.2585 47.7326 47.1856 48.2835 46.4588 48.6037C45.732 48.9111 44.7168 49.2826 44.2092 49.4235C43.7015 49.5516 42.894 49.7438 42.421 49.8335C41.948 49.9231 40.679 50 39.5945 50C38.5101 50 37.218 49.9359 36.7104 49.8463C36.2028 49.7438 35.3952 49.5645 34.9222 49.4235C34.4492 49.2826 33.6186 48.988 33.0763 48.783C32.5341 48.5653 31.5766 48.0913 30.9421 47.7326C30.3076 47.3611 29.4308 46.7975 28.9809 46.4644C28.5309 46.1442 27.7118 45.4268 27.135 44.876C26.5697 44.3123 25.7275 43.3772 25.2545 42.7751C24.7815 42.1731 24.1586 41.2892 23.8701 40.7896C23.5702 40.29 23.0626 39.3164 22.728 38.6119C22.405 37.9073 21.9897 36.8953 21.8166 36.3701C21.6436 35.8449 21.4013 35.0122 21.2859 34.5126C21.159 34.013 20.986 33.1291 20.8937 32.5271C20.8014 31.925 20.6976 30.6824 20.6514 29.7729C20.6053 28.7353 20.6399 27.6208 20.7207 26.8266C20.8014 26.122 20.9629 25.0588 21.0783 24.4567C21.1937 23.8547 21.4244 22.9067 21.5974 22.3431C21.7589 21.7794 22.1743 20.6906 22.5088 19.9092C22.8434 19.1278 23.4548 17.9492 24.6316 16.0661L24.0893 15.4513C23.5817 14.8748 23.5471 14.862 23.351 15.067C23.2356 15.2079 22.9703 15.2975 22.6819 15.2975C22.255 15.2975 22.1512 15.2207 21.1937 14.1446C20.2477 13.0814 20.1669 12.9533 20.1669 12.4793C20.1554 11.9797 20.2361 11.8901 22.1512 9.7636C23.2356 8.54664 24.2393 7.53465 24.3662 7.50903C24.4931 7.49622 24.7239 7.50903 24.8854 7.53465C25.0469 7.57308 25.4853 7.91895 25.8544 8.31606C26.2351 8.70036 26.6851 9.2512 26.8697 9.53302C27.0542 9.81484 27.2042 10.1863 27.2042 10.3657C27.2042 10.545 27.1004 10.8268 26.7428 11.3264L27.8272 12.5178L28.8655 11.7107C29.4308 11.2624 30.4229 10.6091 31.0574 10.2504C31.692 9.90451 32.8341 9.3793 33.5955 9.09748C34.3569 8.81565 35.5106 8.48259 37.3449 8.12391V6.0743L36.5143 5.98463C35.8221 5.92058 35.6259 5.84372 35.3837 5.5619C35.0952 5.24165 35.0952 5.20322 35.0952 3.1408C35.0952 1.71888 35.1414 0.950276 35.2452 0.745315C35.3144 0.578784 35.5567 0.335393 35.7644 0.220103C36.0874 0.0279518 36.5719 0.00233166 39.5022 0.00233166H39.5138ZM35.8567 13.4401C35.3837 13.581 34.703 13.8116 34.3569 13.9653C34.0108 14.1062 33.3071 14.4649 32.7995 14.7595C32.2919 15.0542 31.4612 15.6434 30.9536 16.0533C30.446 16.4761 29.6961 17.1934 29.2808 17.6674C28.8655 18.1286 28.2887 18.8459 28.0002 19.2687C27.7118 19.6914 27.2619 20.4344 26.9966 20.934C26.7428 21.4208 26.3505 22.3175 26.1313 22.9195C25.9006 23.5216 25.6237 24.4695 25.4853 25.0332C25.3584 25.5968 25.1969 26.6601 25.1161 27.403C25.0469 28.1588 25.0123 29.2605 25.0584 29.901C25.093 30.5287 25.2084 31.5151 25.3007 32.0787C25.393 32.6424 25.6237 33.5903 25.7968 34.1924C25.9813 34.7945 26.339 35.7424 26.6043 36.306C26.8581 36.8697 27.4003 37.8433 27.7926 38.4709C28.1964 39.0858 29.0039 40.0978 29.5692 40.7127C30.1345 41.3148 30.9651 42.0834 31.4151 42.4036C31.865 42.7367 32.6033 43.2107 33.0533 43.4669C33.5147 43.7231 34.2185 44.0689 34.6107 44.2227C35.0145 44.3892 35.6952 44.6198 36.1451 44.7351C36.595 44.8504 37.3564 45.0041 37.841 45.0809C38.337 45.145 39.1446 45.209 39.6291 45.209C40.1252 45.209 41.0251 45.1194 41.625 45.0169C42.2249 44.9272 43.1939 44.6838 43.7592 44.5045C44.3245 44.3251 45.2705 43.9152 45.8358 43.6078C46.4011 43.3003 47.1741 42.8264 47.5317 42.5574C47.8893 42.2883 48.57 41.7247 49.0199 41.302C49.4814 40.8792 50.1736 40.1363 50.5543 39.6367C50.935 39.1371 51.4657 38.3685 51.731 37.9073C51.9964 37.4461 52.4001 36.6519 52.6309 36.1395C52.8616 35.6399 53.1962 34.7176 53.3807 34.0899C53.5769 33.475 53.8076 32.399 53.923 31.6944C54.0729 30.708 54.096 29.9651 54.0499 28.4279C54.0037 27.0444 53.9114 26.1092 53.7499 25.3534C53.6115 24.7514 53.3115 23.7138 53.0693 23.0476C52.8385 22.3815 52.3886 21.3695 52.0771 20.8059C51.7772 20.2422 51.2926 19.4608 51.0273 19.0765C50.7619 18.6922 50.1044 17.9108 49.5737 17.3472C49.043 16.7835 48.1662 15.9893 47.624 15.5922C47.0818 15.1951 46.2281 14.6699 45.7205 14.4136C45.2128 14.1574 44.3937 13.7988 43.8977 13.6322C43.4131 13.4529 42.5594 13.2223 41.9941 13.1198C41.4058 13.0045 40.379 12.9277 39.4907 12.9405C38.6716 12.9533 37.7025 13.0045 37.3564 13.0686C37.0103 13.1326 36.3297 13.2992 35.8567 13.4401ZM9.72628 19.2174C14.0987 19.2046 17.8596 19.243 18.0672 19.2943C18.3441 19.3711 18.4249 19.448 18.3672 19.5889C18.321 19.6914 18.1134 20.3575 17.9057 21.0621C17.6981 21.7666 17.4673 22.5865 17.2828 23.4319H9.40326C1.81218 23.4319 1.52376 23.4191 1.03923 23.1757C0.773887 23.0348 0.450862 22.7402 0.323959 22.4968C0.197057 22.279 0.0586178 21.8819 0.0240081 21.6385C-0.0221383 21.3951 0.000934887 20.9852 0.0701544 20.7418C0.139374 20.4984 0.370106 20.1141 0.577765 19.8835C0.785423 19.6658 1.14306 19.4224 1.36225 19.3583C1.60452 19.2815 4.88091 19.2174 9.72628 19.2174ZM3.95799 27.0187H16.7636V31.118L10.28 31.0923C3.91184 31.0539 3.79647 31.0539 3.47345 30.7849C3.3004 30.644 3.03506 30.3237 2.88508 30.0804C2.71203 29.7857 2.63128 29.4655 2.63128 29.0684C2.63128 28.7481 2.73511 28.2998 2.86201 28.0436C2.98891 27.8002 3.28886 27.4671 3.53113 27.3134L3.95799 27.0187ZM17.2828 34.692L17.4558 35.435C17.5596 35.8321 17.7904 36.6647 17.9634 37.254C18.148 37.8561 18.3326 38.4453 18.3672 38.5734C18.4249 38.7784 18.1134 38.7912 12.8066 38.7912C7.68431 38.7912 7.15362 38.7784 6.78445 38.5734C6.56526 38.4453 6.29991 38.2019 6.17301 38.0226C6.05765 37.8561 5.91921 37.5102 5.87306 37.254C5.81538 36.9978 5.82691 36.6007 5.90767 36.2932C5.97689 35.9986 6.11533 35.6527 6.21916 35.5118C6.32299 35.3581 6.57679 35.1147 6.79599 34.9738C7.1767 34.7048 7.28053 34.692 17.2828 34.692ZM39.6637 17.2191C39.8137 17.2575 40.0675 17.3728 40.206 17.4753C40.3444 17.5777 40.5174 17.8596 40.5867 18.1029C40.6674 18.4488 40.6559 18.6666 40.529 18.9997C40.4021 19.3199 40.2175 19.5121 39.9175 19.653C39.5484 19.8323 39.433 19.8323 39.0869 19.6786C38.8216 19.5761 38.6024 19.3583 38.4755 19.0637C38.3024 18.6794 38.2909 18.5513 38.4178 18.1029C38.5216 17.7315 38.6716 17.5393 38.9715 17.3728C39.2023 17.2319 39.4907 17.1678 39.6637 17.2191ZM44.3014 18.5641C44.5168 18.5556 44.7668 18.705 45.0513 19.0125C45.4551 19.448 45.4782 19.5121 45.409 20.0116C45.3513 20.3447 45.2128 20.6521 45.0283 20.8315C44.8321 21.0236 44.5899 21.1133 44.2784 21.1133C43.9092 21.1133 43.7362 21.0365 43.4708 20.729C43.2055 20.4344 43.1247 20.2294 43.1247 19.8707C43.1247 19.6017 43.217 19.2687 43.3208 19.1149C43.4362 18.9612 43.6323 18.7819 43.7592 18.705C43.8861 18.6282 44.1284 18.5641 44.3014 18.5641ZM34.7607 18.6794C34.9568 18.6794 35.2452 18.7947 35.4413 18.9612C35.6259 19.1278 35.8105 19.3711 35.8567 19.5121C35.9143 19.653 35.9028 19.986 35.8451 20.255C35.7874 20.5369 35.6029 20.8443 35.4183 20.998C35.2452 21.1389 34.9568 21.2542 34.7838 21.2542C34.6107 21.2414 34.3338 21.1774 34.1608 21.0877C33.9993 20.998 33.7916 20.7674 33.6993 20.5753C33.6186 20.3831 33.5493 20.0885 33.5493 19.9348C33.5493 19.7683 33.6301 19.5121 33.7339 19.3327C33.8262 19.1662 34.0223 18.9612 34.1608 18.8587C34.2992 18.7691 34.5646 18.6922 34.7607 18.6794ZM47.7047 22.3943C47.8432 22.3943 48.0855 22.4584 48.2239 22.5224C48.3623 22.5993 48.57 22.8299 48.6854 23.0348C48.8007 23.2526 48.893 23.5728 48.893 23.7394C48.893 23.9187 48.7661 24.2262 48.6161 24.4183C48.4662 24.6105 47.0126 25.8018 42.4325 29.3758L42.2595 30.0547C42.1326 30.5287 41.9249 30.8874 41.5673 31.2973C41.175 31.7329 40.8751 31.925 40.379 32.0787C39.9406 32.2196 39.5368 32.2581 39.2023 32.2068C38.9139 32.1556 38.4985 32.0275 38.2793 31.8994C38.0717 31.7841 37.7025 31.4767 37.4718 31.2204C37.2295 30.9514 36.9757 30.4903 36.8603 30.0675C36.745 29.6961 36.6527 29.2349 36.6527 29.0555C36.6527 28.889 36.7334 28.4407 36.8373 28.0692C36.9526 27.608 37.1603 27.2237 37.4949 26.8394C37.7948 26.5063 38.2101 26.2117 38.5678 26.0708C38.8792 25.9555 39.3176 25.853 39.5484 25.853C39.7676 25.853 40.1021 25.9043 40.2983 25.9683C40.5982 26.0708 41.0135 25.8787 44.0476 24.239C45.9166 23.227 47.5663 22.3943 47.7047 22.3943ZM38.3947 28.6072C38.3255 28.8634 38.3024 29.1836 38.3486 29.3502C38.3832 29.5039 38.5332 29.7729 38.6601 29.9266C38.7985 30.0932 39.0754 30.2725 39.283 30.3494C39.5599 30.439 39.756 30.4134 40.0675 30.2725C40.3098 30.1572 40.5405 29.9138 40.6559 29.6704C40.7828 29.3886 40.8174 29.094 40.7713 28.7737C40.7251 28.4535 40.5751 28.1845 40.3559 27.9667C40.1367 27.7745 39.8599 27.6464 39.6291 27.6464C39.4215 27.6464 39.0869 27.7617 38.8793 27.9026C38.637 28.0692 38.4639 28.3254 38.3947 28.6072ZM31.5304 22.6249C31.6573 22.6633 31.8765 22.7786 32.0265 22.8939C32.165 23.0092 32.3149 23.1885 32.338 23.291C32.3726 23.4063 32.4072 23.6625 32.4188 23.8675C32.4303 24.0852 32.3495 24.4183 32.2457 24.6105C32.1303 24.8154 31.865 25.0204 31.6112 25.1101C31.242 25.2382 31.1267 25.2253 30.7806 25.0076C30.5498 24.8667 30.296 24.5848 30.2153 24.3799C30.123 24.1621 30.0884 23.829 30.123 23.6113C30.1576 23.4063 30.2845 23.1245 30.3999 23.0092C30.5152 22.8811 30.7575 22.7274 30.9536 22.6633C31.1382 22.5993 31.4035 22.5865 31.5304 22.6249ZM49.1468 27.6593C49.366 27.6464 49.5967 27.8002 49.8736 28.0948C50.1159 28.3766 50.2774 28.6712 50.2774 28.8634C50.2774 29.0427 50.1966 29.363 50.1044 29.568C50.0005 29.7857 49.8275 30.0163 49.7006 30.0804C49.5737 30.1572 49.2853 30.2085 49.0661 30.2085C48.7661 30.2085 48.57 30.106 48.3162 29.8242C48.0624 29.5423 47.9701 29.3246 47.9701 28.9915C47.9701 28.7481 48.0162 28.4279 48.0855 28.2869C48.1431 28.146 48.3393 27.9539 48.5123 27.8514C48.6854 27.7489 48.9738 27.6593 49.1468 27.6593ZM30.0191 27.9026C30.2499 27.9026 30.5614 28.0051 30.7229 28.1332C30.8844 28.2485 31.069 28.5303 31.1382 28.7353C31.1959 28.9531 31.219 29.2733 31.1843 29.4399C31.1497 29.6192 30.9882 29.9138 30.8267 30.0804C30.596 30.3237 30.3999 30.4006 30.0076 30.4006C29.5808 30.4006 29.4308 30.3366 29.2116 30.0547C29.0039 29.7985 28.9347 29.5551 28.9347 29.1836C28.9462 28.7865 29.027 28.556 29.2808 28.2869C29.5231 28.0051 29.7077 27.9026 30.0191 27.9026ZM48.1777 33.0267C48.3393 33.0651 48.5815 33.2572 48.7315 33.4494C48.9045 33.6672 49.0084 33.9618 49.0084 34.2436C49.0084 34.5639 48.9045 34.8201 48.6623 35.1147C48.3854 35.4606 48.247 35.5246 47.8547 35.5246C47.4509 35.5246 47.3125 35.4606 47.0356 35.1147C46.8049 34.8329 46.6895 34.5511 46.6895 34.2821C46.6895 34.0515 46.7934 33.7056 46.9203 33.5134C47.0472 33.3213 47.3125 33.1163 47.5202 33.0523C47.7278 33.001 48.0162 32.9882 48.1777 33.0267ZM31.4382 33.1676C31.7035 33.1548 31.9111 33.2701 32.165 33.5391C32.4303 33.8465 32.5111 34.0387 32.5111 34.4358C32.5111 34.7816 32.4188 35.0507 32.2457 35.2812C32.0842 35.4862 31.8189 35.6271 31.5304 35.6783C31.1497 35.7424 30.9998 35.6912 30.6883 35.4093C30.4575 35.2044 30.2845 34.9226 30.2499 34.6664C30.2153 34.4358 30.2383 34.1027 30.3076 33.9234C30.3768 33.7568 30.5729 33.5134 30.746 33.3853C30.919 33.2701 31.2305 33.1676 31.4382 33.1676ZM44.4745 36.8825C44.7398 36.8697 44.9475 36.985 45.2013 37.254C45.4666 37.5614 45.5474 37.7536 45.5474 38.1507C45.5474 38.4966 45.4551 38.7656 45.2821 38.9962C45.1205 39.2011 44.8437 39.3548 44.5437 39.4061C44.1053 39.4957 44.0361 39.4701 43.6554 39.0218C43.3785 38.6973 43.2401 38.4197 43.2401 38.1891C43.2401 37.997 43.3208 37.7023 43.4247 37.523C43.517 37.3565 43.7131 37.1515 43.8515 37.049C43.99 36.9594 44.2668 36.8825 44.4745 36.8825ZM34.8991 36.9978C35.1414 37.0106 35.4413 37.1003 35.5798 37.2284C35.7182 37.3437 35.8913 37.5999 35.972 37.7664C36.0412 37.9457 36.0759 38.266 36.0412 38.5094C35.9951 38.74 35.8221 39.0602 35.6259 39.2395C35.4298 39.4189 35.1414 39.5598 34.9914 39.5598C34.8299 39.5598 34.5646 39.5086 34.4146 39.4317C34.2531 39.3676 34.0454 39.1755 33.9416 39.0218C33.8493 38.8552 33.757 38.4966 33.757 38.2276C33.7455 37.8048 33.8147 37.6511 34.1146 37.3565C34.3684 37.1003 34.5876 36.9978 34.8991 36.9978ZM39.6291 38.2916C39.7099 38.2916 39.9406 38.3685 40.1483 38.4709C40.3559 38.5734 40.5867 38.804 40.6674 38.9833C40.7482 39.1627 40.8174 39.4701 40.8174 39.6623C40.8174 39.8544 40.7482 40.1491 40.6559 40.3156C40.5751 40.4821 40.3329 40.6871 40.1137 40.7768C39.8945 40.8792 39.5714 40.9177 39.3869 40.8664C39.2023 40.8152 38.9254 40.623 38.7754 40.4309C38.6139 40.2259 38.4985 39.9057 38.4985 39.6623C38.4985 39.4317 38.6024 39.0858 38.7408 38.8809C38.8677 38.6759 39.0869 38.4709 39.2369 38.4069C39.3753 38.3428 39.5484 38.2916 39.6291 38.2916Z" fill="white"/>
</svg>
