<svg width="50" height="49" viewBox="0 0 50 49" fill="none" xmlns="http://www.w3.org/2000/svg">
<circle cx="25.0296" cy="24.6414" r="23.6414" stroke="url(#paint0_linear_166_238)" stroke-width="0.945657"/>
<path fill-rule="evenodd" clip-rule="evenodd" d="M25.0292 38.9208C31.5576 38.9208 36.8499 32.8664 36.8499 25.3979H13.2085C13.2085 32.8664 18.5008 38.9208 25.0292 38.9208Z" fill="white"/>
<path d="M17.3696 16.4142C17.3696 15.4741 18.1317 14.712 19.0718 14.712C20.0119 14.712 20.774 15.4741 20.774 16.4142V25.398H17.3696V16.4142Z" fill="white"/>
<path d="M29.2847 16.4142C29.2847 15.4741 30.0468 14.712 30.9869 14.712C31.9269 14.712 32.689 15.4741 32.689 16.4142V25.398H29.2847V16.4142Z" fill="white"/>
<path d="M24.6509 38.8736H25.3601V48.7557C24.9684 48.7557 24.6509 48.4382 24.6509 48.0465V38.8736Z" fill="white"/>
<path d="M26.3531 38.8263C25.7558 38.8263 25.3684 39.6853 25.3601 39.772H24.6509C24.6427 39.6864 24.2239 38.8022 23.5429 38.7795L23.5161 38.779C23.5251 38.779 23.534 38.7792 23.5429 38.7795L26.3531 38.8263Z" fill="white"/>
<defs>
<linearGradient id="paint0_linear_166_238" x1="43.8009" y1="-2.12067" x2="4.67434" y2="48.2828" gradientUnits="userSpaceOnUse">
<stop offset="0.804053" stop-color="white"/>
<stop offset="0.814952" stop-opacity="0"/>
</linearGradient>
</defs>
</svg>
